<?xml version="1.0" encoding="UTF-8"?>
<svg version="1.1" xmlns="http://www.w3.org/2000/svg" width="245" height="243">
<path d="M0 0 C80.85 0 161.7 0 245 0 C245 80.19 245 160.38 245 243 C164.15 243 83.3 243 0 243 C0 162.81 0 82.62 0 0 Z " fill="#FEFEFE" transform="translate(0,0)"/>
<path d="M0 0 C9.25844108 -0.25663079 18.51563025 -0.45118901 27.77687168 -0.56993389 C32.07902054 -0.62697324 36.37870997 -0.70411707 40.67944336 -0.82983398 C44.84238656 -0.95073975 49.00298952 -1.01540357 53.16755486 -1.04364967 C54.74365993 -1.06373432 56.31965917 -1.10295072 57.89474678 -1.16303062 C68.75758074 -1.56030804 76.85085342 0.32274076 85.17372131 7.6966095 C89.14787994 11.84514695 89.70469446 15.89476893 89.69944763 21.54667664 C89.62202835 22.82420303 89.54460907 24.10172943 89.46484375 25.41796875 C89.43679214 26.76976115 89.41547537 28.1217083 89.40052795 29.47370911 C89.34379782 32.99777928 89.19708211 36.51226182 89.02996826 40.03259277 C88.87524766 43.63824669 88.8077538 47.24548475 88.73242188 50.85351562 C88.57254596 57.90621921 88.31731768 64.95247753 88 72 C78.51652748 72.02313912 69.03306464 72.04092312 59.54957008 72.05181217 C55.14631785 72.05703755 50.74308489 72.06412897 46.33984375 72.07543945 C42.09290756 72.08628054 37.84598994 72.09227944 33.59904099 72.09487724 C31.97627851 72.09672928 30.35351708 72.10034568 28.73076248 72.10573006 C26.46322661 72.11295668 24.19576813 72.11399025 21.92822266 72.11352539 C20.63582672 72.115746 19.34343079 72.11796661 18.01187134 72.12025452 C15 72 15 72 13 71 C13 70.34 13 69.68 13 69 C12.2575 68.71125 11.515 68.4225 10.75 68.125 C6.30492929 66.30656198 3.11802862 64.77318481 0 61 C-0.48101807 58.20318604 -0.48101807 58.20318604 -0.45410156 54.94628906 C-0.45379944 53.72532532 -0.45349731 52.50436157 -0.45318604 51.24639893 C-0.43254089 49.93274353 -0.41189575 48.61908813 -0.390625 47.265625 C-0.38316087 45.90371532 -0.37746874 44.54179488 -0.37347412 43.17987061 C-0.35823092 39.60229632 -0.31896181 36.02537578 -0.2746582 32.44805908 C-0.23367632 28.79488976 -0.21545697 25.14161438 -0.1953125 21.48828125 C-0.1524651 14.3252234 -0.08423115 7.16270344 0 0 Z " fill="#080808" transform="translate(77,86)"/>
<path d="M0 0 C20.79 0 41.58 0 63 0 C63 18.48 63 36.96 63 56 C58.71 56 54.42 56 50 56 C50 41.81 50 27.62 50 13 C37.79 13 25.58 13 13 13 C13 27.19 13 41.38 13 56 C8.71 56 4.42 56 0 56 C0 37.52 0 19.04 0 0 Z " fill="#F8F8F8" transform="translate(81,90)"/>
<path d="M0 0 C0.33 0 0.66 0 1 0 C1.33 1.98 1.66 3.96 2 6 C2.66 5.01 3.32 4.02 4 3 C4 22.14 4 41.28 4 61 C8.62 61 13.24 61 18 61 C18 61.33 18 61.66 18 62 C15.56304285 62.22181406 13.126474 62.42791119 10.6875 62.625 C9.65206055 62.72167969 9.65206055 62.72167969 8.59570312 62.8203125 C4.7440028 63.11802847 3.31145584 63.20763723 0 61 C-0.36076355 58.44369507 -0.36076355 58.44369507 -0.34057617 55.17333984 C-0.34034958 53.95222504 -0.34012299 52.73111023 -0.33988953 51.47299194 C-0.32456852 50.13563677 -0.30892051 48.7982853 -0.29296875 47.4609375 C-0.28737422 46.09616562 -0.28310344 44.73138772 -0.28010559 43.36660767 C-0.2686454 39.77269893 -0.23916871 36.17915333 -0.20599365 32.58538818 C-0.17531771 28.9189546 -0.16160559 25.2524624 -0.14648438 21.5859375 C-0.11429964 14.39045936 -0.06308972 7.19528054 0 0 Z " fill="#191919" transform="translate(77,86)"/>
<path d="M0 0 C4.62 0 9.24 0 14 0 C14 4.62 14 9.24 14 14 C9.38 14 4.76 14 0 14 C0 9.38 0 4.76 0 0 Z " fill="#E0E0E0" transform="translate(106,133)"/>
<path d="M0 0 C0.66 0.66 1.32 1.32 2 2 C4.36509361 2.30059943 6.74441881 2.49515012 9.125 2.625 C11.04699219 2.73714844 11.04699219 2.73714844 13.0078125 2.8515625 C14.48894531 2.92503906 14.48894531 2.92503906 16 3 C16 3.33 16 3.66 16 4 C13.54203147 4.19436491 11.08390706 4.3807742 8.625 4.5625 C7.92632812 4.61857422 7.22765625 4.67464844 6.5078125 4.73242188 C1.2265625 5.11328125 1.2265625 5.11328125 -1 4 C-0.67 2.68 -0.34 1.36 0 0 Z " fill="#111111" transform="translate(79,144)"/>
</svg>
